<?xml version="1.0" encoding="utf-8"?>
<!-- Generator: Adobe Illustrator 19.0.0, SVG Export Plug-In . SVG Version: 6.00 Build 0)  -->
<svg version="1.1" id="artwork_outlined_" xmlns="http://www.w3.org/2000/svg" xmlns:xlink="http://www.w3.org/1999/xlink" x="0px"
	 y="0px" viewBox="-14.6 382 106 30" style="enable-background:new -14.6 382 106 30;" xml:space="preserve">
<style type="text/css">
	.st0{fill:#494949;}
	.st1{fill:#6FDA44;}
</style>
<title>upwork_use_on_white_PREFERRED</title>
<path class="st0" d="M50.8,388.9c-4.5,0-8.1,3.6-8.1,8.1s3.6,8.1,8.1,8.1s8.1-3.6,8.1-8.1c0,0,0,0,0,0
	C58.9,392.6,55.3,388.9,50.8,388.9z M50.8,401.8c-2.6,0-4.8-2.1-4.8-4.8s2.1-4.8,4.8-4.8c2.6,0,4.8,2.1,4.8,4.8l0,0
	C55.6,399.7,53.5,401.8,50.8,401.8z"/>
<path class="st0" d="M68.8,392.8c-2.3,0-4.2,1.9-4.2,4.2v7.7h-3.5v-15.3h3.5v2.4c1-1.5,2.7-2.4,4.5-2.4h1.1v3.4H68.8z"/>
<polygon class="st0" points="33.6,389.4 36.2,400 39.1,389.4 42.6,389.4 38.1,404.7 34.7,404.7 32,394 29.2,404.7 25.8,404.7 
	21.3,389.4 24.8,389.4 27.7,400 30.3,389.4 "/>
<path class="st0" d="M80.5,396.4c2.6-1.4,4.1-4.1,4.1-7.1h-3.5c0,2.6-2.1,4.6-4.6,4.6H76v-12h-3.5v22.7H76v-7.2h0.4
	c0.4,0,0.7,0.2,1,0.5l4.9,6.7h4.2L80.5,396.4z"/>
<path class="st1" d="M13.1,388.9c-3.8,0-6.7,2.5-7.9,6.5c-1.8-2.7-3.1-5.7-4-8.8h-4.1v10.6c0,2.1-1.7,3.8-3.8,3.8s-3.8-1.7-3.8-3.8
	v-10.6h-4.1v10.6c0,4.3,3.5,7.9,7.9,7.9s7.9-3.5,7.9-7.9v-1.8c0.8,1.7,1.8,3.3,2.9,4.8L1.6,412h4.2l1.8-8.5c1.6,1.1,3.5,1.6,5.5,1.7
	c4.5,0,8.1-3.6,8.1-8.1S17.6,388.9,13.1,388.9L13.1,388.9z M13.1,401.1c-1.6,0-3.2-0.7-4.6-1.8l0.3-1.6v-0.1
	c0.3-1.7,1.3-4.6,4.2-4.6c2.2-0.1,4.1,1.7,4.1,3.9c0.1,2.2-1.7,4.1-3.9,4.1C13.2,401.1,13.1,401.1,13.1,401.1L13.1,401.1z"/>
<path class="st0" d="M85.8,390.4L85.8,390.4c0-0.6,0.4-1,1-1c0.6,0,1,0.4,1,1l0,0l0,0c0,0.6-0.4,1-1,1
	C86.3,391.4,85.8,391,85.8,390.4z M87.7,390.4L87.7,390.4c0.1-0.5-0.2-1-0.7-1c-0.5-0.1-1,0.2-1,0.7c0,0.1,0,0.2,0,0.3l0,0
	c-0.1,0.5,0.2,1,0.7,1c0.5,0.1,1-0.2,1-0.7C87.7,390.6,87.7,390.5,87.7,390.4z M86.4,389.9h0.5c0.2,0,0.4,0.1,0.4,0.3
	c0,0.1-0.1,0.3-0.2,0.3l0.3,0.4h-0.2l-0.2-0.4h-0.2v0.4h-0.2L86.4,389.9z M86.9,390.4c0.1,0,0.2-0.1,0.2-0.2S87,390,86.9,390h-0.2
	v0.3L86.9,390.4z"/>
</svg>
